<?xml version="1.0" standalone="no"?>
<!DOCTYPE svg PUBLIC "-//W3C//DTD SVG 20010904//EN"
http://www.w3.org/TR/2001/REC-SVG-20010904/DTD/svg10.dtd">
<svg version="1.0" xmlns="http://www.w3.org/2000/svg"
width="260.000000pt" height="260.000000pt" viewBox="0 0 260.000000 260.000000"
preserveAspectRatio="xMidYMid meet">
<metadata>
Created by potrace 1.11, written by Peter Selinger 2001-2013
</metadata>
<g transform="translate(0.000000,260.000000) scale(0.100000,-0.100000)"
fill="#000000" stroke="none">
<path d="M655 1896 c-133 -32 -251 -131 -309 -258 -29 -64 -61 -172 -65 -218
-29 -359 56 -601 242 -688 112 -52 279 -56 508 -11 l55 11 1 129 0 130 -45 -3
c-43 -3 -45 -4 -66 -56 -46 -113 -110 -160 -222 -160 -163 0 -251 109 -287
354 -24 160 -11 352 31 469 56 157 133 224 262 231 109 5 179 -42 221 -148 16
-41 19 -43 61 -46 l44 -3 1 120 c1 138 13 123 -118 146 -100 18 -244 18 -314
1z"/>
<path d="M1288 1894 c-14 -13 6 -41 35 -50 22 -6 38 -20 50 -44 16 -32 17 -74
15 -516 -3 -456 -4 -483 -22 -503 -10 -11 -28 -23 -40 -27 -31 -10 -45 -24
-39 -40 4 -11 39 -14 189 -14 175 0 184 1 184 19 0 13 -11 23 -34 31 -66 22
-70 37 -72 303 l-1 237 243 0 244 0 1 -52 c1 -153 -1 -396 -5 -414 -7 -37 -28
-61 -62 -73 -23 -8 -34 -19 -34 -32 0 -18 9 -19 185 -19 172 0 185 1 185 18 0
11 -14 24 -39 35 -25 11 -43 28 -51 47 -18 44 -17 958 1 1001 8 20 25 35 50
46 26 10 39 21 39 34 0 18 -10 19 -186 19 l-185 0 3 -22 c2 -15 13 -25 35 -31
62 -18 70 -76 63 -449 l0 -28 -243 0 -243 0 1 203 c1 229 7 254 64 273 23 7
35 18 38 33 3 21 1 21 -180 21 -101 0 -186 -3 -189 -6z"/>
</g>
</svg>
